<svg xmlns="http://www.w3.org/2000/svg" viewBox="0 0 32 32" width="32" height="32">
  <!-- Background circle -->
  <circle cx="16" cy="16" r="16" fill="#3B82F6"/>
  
  <!-- Link chain icon -->
  <g fill="white" stroke="white" stroke-width="1.5">
    <!-- Left link -->
    <path d="M12 14a2 2 0 1 1 0 4 2 2 0 0 1 0-4z" opacity="0"/>
    <path d="M8 14a4 4 0 0 0 0 8h4a4 4 0 0 0 4-4" stroke-linecap="round" fill="none"/>
    
    <!-- Right link -->
    <path d="M20 18a2 2 0 1 1 0-4 2 2 0 0 1 0 4z" opacity="0"/>
    <path d="M24 18a4 4 0 0 0 0-8h-4a4 4 0 0 0-4 4" stroke-linecap="round" fill="none"/>
    
    <!-- Connection line -->
    <line x1="12" y1="16" x2="20" y2="16" stroke-linecap="round"/>
  </g>
</svg>